<svg width="305" height="292" viewBox="0 0 305 292" fill="none" xmlns="http://www.w3.org/2000/svg">
<g filter="url(#filter0_ddddiiii)">
<path fill-rule="evenodd" clip-rule="evenodd" d="M209.23 110.383L232.277 73.4688L232.375 72.6875C232.375 71.5156 232.082 70.7669 231.496 70.4414C230.269 70.4414 228.924 70.4486 227.463 70.463C225.885 70.4785 224.171 70.5024 222.32 70.5347C213.253 70.6929 200.914 71.0525 185.305 71.6133L174.172 72.0039L173.684 71.7109C173.152 72.3313 172.325 73.7092 171.203 75.8445C170.533 77.1213 169.757 78.6691 168.875 80.4876C167.982 82.3297 166.981 84.4497 165.871 86.8477C163.156 92.7158 160.912 97.6708 159.14 101.713C158.911 102.233 158.691 102.739 158.478 103.229C158.292 103.659 158.111 104.077 157.937 104.484C157.559 105.365 157.209 106.193 156.887 106.965L153.859 113.801L150.539 107.258L149.074 103.352C148.821 102.738 148.57 102.133 148.322 101.537C140.995 83.9177 136.135 73.9433 133.742 71.6133C130.552 71.6784 125.962 71.7109 119.973 71.7109C112.355 71.1901 102.199 70.9297 89.5039 70.9297H73.9766C73.9766 71.0599 74.0091 71.1901 74.0742 71.3203L87.6484 93.7812C94.4193 105.044 101.353 116.991 108.449 129.621L117.434 144.367L80.7148 201.887C80.5195 202.408 80.194 202.896 79.7383 203.352C77.8757 206.107 76.2907 208.535 74.9831 210.637C72.9045 213.978 71.5273 216.493 70.8516 218.183C70.526 218.997 70.3633 219.62 70.3633 220.051C70.3633 220.246 70.526 220.441 70.8516 220.637H89.1133L95.4609 220.539C107.245 220.539 118.085 220.669 127.98 220.93C131.04 218 136.118 208.82 143.215 193.391C143.699 192.276 144.359 190.865 145.195 189.156C146.606 186.271 148.518 182.54 150.93 177.961L166.652 210.871C166.978 211.587 167.694 213.02 168.801 215.168C169.908 217.316 170.689 218.977 171.145 220.148C172.642 221.06 175.344 221.516 179.25 221.516L229.348 221.125C229.594 221.11 229.831 221.093 230.058 221.075C230.151 221.067 230.242 221.059 230.332 221.05C230.494 221.035 230.65 221.019 230.802 221.002C231.055 220.973 231.295 220.941 231.52 220.906C231.642 220.887 231.759 220.867 231.872 220.846C232.89 220.66 233.579 220.401 233.938 220.07C234.02 219.994 234.085 219.914 234.133 219.83C234.198 219.715 234.23 219.594 234.23 219.465C234.23 219.314 234.198 219.175 234.133 219.046C234.1 218.982 234.06 218.921 234.011 218.862C233.989 218.835 233.964 218.808 233.938 218.781H234.133L233.938 218.488L233.84 218.195C233.84 218.326 233.872 218.423 233.938 218.488V218.781L225.148 204.816V204.914L207.57 177.766V177.863C207.559 177.847 207.544 177.824 207.525 177.795C207.518 177.786 207.512 177.776 207.505 177.766C207.278 177.429 206.616 176.452 205.52 174.836C204.283 173.013 203.404 171.646 202.883 170.734L200.539 166.633L192.141 153.84L189.113 149.641L186.965 145.734L203.762 119.074C207.277 113.54 209.1 110.643 209.23 110.383ZM183.901 159.511L180.645 154.994L175.363 145.39L195.311 113.728L195.321 113.712C197.077 110.948 198.402 108.855 199.302 107.425C199.753 106.708 200.087 106.174 200.311 105.812C200.363 105.728 200.406 105.657 200.442 105.6L200.498 105.488L215.994 80.668C207.894 80.8589 197.791 81.1711 185.664 81.6068L179.369 81.8277C178.213 84.1055 176.743 87.1649 174.947 91.0468C170.926 99.7373 167.995 106.304 166.117 110.811L166.075 110.913L154.474 137.109L141.371 111.288L139.769 107.018C135.954 97.7884 132.845 90.7111 130.426 85.7043C129.658 84.1133 128.982 82.7797 128.396 81.6832C125.968 81.7018 123.159 81.7109 119.973 81.7109H119.631L119.29 81.6876C112.402 81.2167 103.185 80.9591 91.5674 80.9321L96.213 88.619L96.219 88.629C103.017 99.938 109.971 111.918 117.081 124.569L129.219 144.491L89.5258 206.669C88.9914 207.745 88.3413 208.697 87.6329 209.53C87.3794 209.907 87.1323 210.276 86.8916 210.637H89.0365L89.4457 210.63C89.52 210.629 89.5476 210.629 89.5476 210.629L90.4472 210.615C90.6664 210.612 90.3146 210.617 90.5336 210.614L90.8714 210.608C90.9143 210.608 90.9313 210.608 90.9335 210.608C91.0724 210.605 90.7754 210.61 90.9539 210.607L92.3069 210.586C92.4399 210.584 92.4169 210.585 92.3693 210.585L92.3747 210.585L92.424 210.585C92.4073 210.585 92.3919 210.585 92.4417 210.584L92.8276 210.578C92.91 210.577 92.9515 210.576 92.9669 210.576L92.9755 210.576L92.9801 210.576L93.054 210.575C93.0865 210.574 93.1296 210.574 93.1855 210.573L93.2141 210.572L93.2174 210.572L93.2206 210.572L93.2425 210.572C93.4075 210.569 93.225 210.572 93.2297 210.572C93.2325 210.572 93.2514 210.572 93.2987 210.571L93.4537 210.569C93.3754 210.57 93.2733 210.572 93.4626 210.569L94.1137 210.559C94.2264 210.557 94.0225 210.56 94.1351 210.558L94.1458 210.558L94.3069 210.556L94.5226 210.552L94.5308 210.552L94.5485 210.552L94.557 210.552L94.9104 210.546C94.9713 210.545 95.0139 210.545 95.0421 210.544L95.084 210.544C95.1256 210.543 95.1571 210.543 95.1802 210.542L95.2079 210.542C95.2314 210.541 95.2446 210.541 95.2507 210.541L95.3009 210.54L95.3036 210.54L95.3056 210.54L95.3067 210.54L95.384 210.539H95.4609C105.319 210.539 114.537 210.63 123.112 210.811C123.757 209.78 124.497 208.519 125.334 207.007C127.694 202.741 130.607 196.868 134.088 189.303C135.567 185.917 138.285 180.508 142.082 173.3L151.366 155.677L175.717 206.646L175.756 206.733C175.962 207.187 176.563 208.4 177.691 210.588C177.849 210.896 178.004 211.2 178.155 211.499C178.478 211.509 178.83 211.515 179.213 211.516L217.317 211.219L201.41 186.65L199.25 183.41L199.236 183.39L199.201 183.338L199.083 183.163C198.984 183.017 198.851 182.819 198.681 182.568C198.341 182.067 197.863 181.362 197.245 180.451C195.984 178.593 194.923 176.96 194.2 175.696L192.01 171.862L183.901 159.511ZM200.579 105.372C200.579 105.372 200.568 105.392 200.542 105.435C200.565 105.394 200.579 105.372 200.579 105.372Z" fill="#EEB13B" fill-opacity="0.3"/>
</g>
<defs>
<filter id="filter0_ddddiiii" x="0.363281" y="0.441406" width="303.867" height="291.074" filterUnits="userSpaceOnUse" color-interpolation-filters="sRGB">
<feFlood flood-opacity="0" result="BackgroundImageFix"/>
<feColorMatrix in="SourceAlpha" type="matrix" values="0 0 0 0 0 0 0 0 0 0 0 0 0 0 0 0 0 0 127 0"/>
<feOffset/>
<feGaussianBlur stdDeviation="10"/>
<feColorMatrix type="matrix" values="0 0 0 0 0.933333 0 0 0 0 0.694118 0 0 0 0 0.231373 0 0 0 0.75 0"/>
<feBlend mode="normal" in2="BackgroundImageFix" result="effect1_dropShadow"/>
<feColorMatrix in="SourceAlpha" type="matrix" values="0 0 0 0 0 0 0 0 0 0 0 0 0 0 0 0 0 0 127 0"/>
<feOffset dx="-5" dy="-5"/>
<feGaussianBlur stdDeviation="32.5"/>
<feColorMatrix type="matrix" values="0 0 0 0 0.933333 0 0 0 0 0.694011 0 0 0 0 0.229444 0 0 0 0.8 0"/>
<feBlend mode="normal" in2="effect1_dropShadow" result="effect2_dropShadow"/>
<feColorMatrix in="SourceAlpha" type="matrix" values="0 0 0 0 0 0 0 0 0 0 0 0 0 0 0 0 0 0 127 0"/>
<feOffset dx="5" dy="5"/>
<feGaussianBlur stdDeviation="32.5"/>
<feColorMatrix type="matrix" values="0 0 0 0 0.933333 0 0 0 0 0.694118 0 0 0 0 0.231373 0 0 0 0.75 0"/>
<feBlend mode="normal" in2="effect2_dropShadow" result="effect3_dropShadow"/>
<feColorMatrix in="SourceAlpha" type="matrix" values="0 0 0 0 0 0 0 0 0 0 0 0 0 0 0 0 0 0 127 0"/>
<feOffset dx="4"/>
<feGaussianBlur stdDeviation="3.5"/>
<feColorMatrix type="matrix" values="0 0 0 0 0 0 0 0 0 0 0 0 0 0 0 0 0 0 0.3 0"/>
<feBlend mode="normal" in2="effect3_dropShadow" result="effect4_dropShadow"/>
<feBlend mode="normal" in="SourceGraphic" in2="effect4_dropShadow" result="shape"/>
<feColorMatrix in="SourceAlpha" type="matrix" values="0 0 0 0 0 0 0 0 0 0 0 0 0 0 0 0 0 0 127 0" result="hardAlpha"/>
<feOffset/>
<feGaussianBlur stdDeviation="58"/>
<feComposite in2="hardAlpha" operator="arithmetic" k2="-1" k3="1"/>
<feColorMatrix type="matrix" values="0 0 0 0 1 0 0 0 0 0.792691 0 0 0 0 0.391667 0 0 0 0.87 0"/>
<feBlend mode="normal" in2="shape" result="effect5_innerShadow"/>
<feColorMatrix in="SourceAlpha" type="matrix" values="0 0 0 0 0 0 0 0 0 0 0 0 0 0 0 0 0 0 127 0" result="hardAlpha"/>
<feOffset dx="5" dy="5"/>
<feGaussianBlur stdDeviation="17.5"/>
<feComposite in2="hardAlpha" operator="arithmetic" k2="-1" k3="1"/>
<feColorMatrix type="matrix" values="0 0 0 0 1 0 0 0 0 0.910545 0 0 0 0 0.7375 0 0 0 0.8 0"/>
<feBlend mode="normal" in2="effect5_innerShadow" result="effect6_innerShadow"/>
<feColorMatrix in="SourceAlpha" type="matrix" values="0 0 0 0 0 0 0 0 0 0 0 0 0 0 0 0 0 0 127 0" result="hardAlpha"/>
<feOffset dx="2" dy="2"/>
<feGaussianBlur stdDeviation="15"/>
<feComposite in2="hardAlpha" operator="arithmetic" k2="-1" k3="1"/>
<feColorMatrix type="matrix" values="0 0 0 0 0.920833 0 0 0 0 0.60775 0 0 0 0 0 0 0 0 0.7 0"/>
<feBlend mode="normal" in2="effect6_innerShadow" result="effect7_innerShadow"/>
<feColorMatrix in="SourceAlpha" type="matrix" values="0 0 0 0 0 0 0 0 0 0 0 0 0 0 0 0 0 0 127 0" result="hardAlpha"/>
<feOffset dx="4"/>
<feGaussianBlur stdDeviation="2.5"/>
<feComposite in2="hardAlpha" operator="arithmetic" k2="-1" k3="1"/>
<feColorMatrix type="matrix" values="0 0 0 0 1 0 0 0 0 0.910545 0 0 0 0 0.7375 0 0 0 0.6 0"/>
<feBlend mode="normal" in2="effect7_innerShadow" result="effect8_innerShadow"/>
</filter>
</defs>
</svg>
